<?xml version="1.0" encoding="UTF-8"?>
<svg width="540px" height="540px" viewBox="0 0 540 540" version="1.1" xmlns="http://www.w3.org/2000/svg" xmlns:xlink="http://www.w3.org/1999/xlink">
    <title>GPS Token</title>
    <g id="页面-1" stroke="none" stroke-width="1" fill="none" fill-rule="evenodd">
        <g id="Goplus-Brand-Kit" transform="translate(-206.000000, -9425.000000)">
            <g id="GPS-Token" transform="translate(206.000000, 9425.000000)">
                <rect id="矩形" fill="#00E678" x="0" y="0" width="540" height="540" rx="270"></rect>
                <g id="编组-24备份" transform="translate(115.695000, 125.415000)" fill="#FFFFFF" fill-rule="nonzero">
                    <path d="M204.048912,70.5496789 L204.048912,70.5651121 L125.424939,70.5651121 C76.4879164,70.5651121 36.8166283,111.084148 36.8166283,161.066192 C36.8166283,211.047643 76.4879164,251.566679 125.424939,251.566679 L135.408696,251.566679 L144.769122,251.566679 L183.14495,251.566679 C192.96779,251.566679 200.929352,243.433904 200.929352,233.40283 C200.929352,223.371754 192.96779,215.238981 183.14495,215.238981 L145.393614,215.238981 L144.769122,215.238981 L132.288555,215.238981 C99.910765,215.238981 73.6332567,191.137453 73.6332567,161.230023 C73.6332567,131.322593 99.910765,106.827515 132.288555,106.827515 L172.108558,106.953949 C172.108558,106.930799 172.10972,106.907056 172.10972,106.883312 L221.510903,106.883312 C221.510903,128.010361 203.24898,145.136022 180.722497,145.136022 C179.967297,145.136022 179.258569,145.114059 178.582373,145.076662 L178.582373,145.133054 L126.360808,145.133054 C117.573754,145.133054 110.449885,152.408684 110.449885,161.384357 C110.449885,170.360028 117.573754,177.637439 126.360808,177.637439 L141.64956,177.637439 L144.769122,177.637439 L145.393614,177.637439 L183.14495,177.637439 C213.300705,177.637439 237.745399,202.604421 237.745399,233.40283 C237.745399,264.201831 213.300705,289.17 183.14495,289.17 L144.769122,289.17 L125.424939,289.17 C56.1550016,289.17 0,231.81557 0,161.066192 C0,90.3168137 56.1550016,32.9623834 125.424939,32.9623834 L166.609534,32.9623834 L204.048912,32.9623834 L240.241048,32.9623834 C240.241048,53.5160251 224.093108,70.2077709 204.048912,70.5496789 M340.162959,52.1888633 L318.413891,52.1888633 L318.413891,75.7440413 C318.413891,77.7682963 316.765656,79.4093782 314.732438,79.4093782 L295.093117,79.4093782 C293.059901,79.4093782 291.411076,77.7682963 291.411076,75.7440413 L291.411076,52.1888633 L270.200042,52.1888633 C268.165648,52.1888633 266.517413,50.5477814 266.517413,48.5235267 L266.517413,30.8090997 C266.517413,28.784845 268.165648,27.1455209 270.200042,27.1455209 L291.411076,27.1455209 L291.411076,3.66533667 C291.411076,1.64108184 293.059901,0 295.093117,0 L314.732438,0 C316.765656,0 318.413891,1.64108184 318.413891,3.66533667 L318.413891,27.1455209 L340.162959,27.1455209 C342.196175,27.1455209 343.845,28.784845 343.845,30.8090997 L343.845,48.5235267 C343.845,50.5477814 342.196175,52.1888633 340.162959,52.1888633" id="Fill-1"></path>
                </g>
            </g>
        </g>
    </g>
</svg>